<?xml version="1.0" standalone="no"?>
<!DOCTYPE svg PUBLIC "-//W3C//DTD SVG 20010904//EN"
 "http://www.w3.org/TR/2001/REC-SVG-20010904/DTD/svg10.dtd">
<svg version="1.0" xmlns="http://www.w3.org/2000/svg"
 width="1280.000000pt" height="640.000000pt" viewBox="0 0 1280.000000 640.000000"
 preserveAspectRatio="xMidYMid meet">
<metadata>
Created by potrace 1.15, written by Peter Selinger 2001-2017
</metadata>
<g transform="translate(0.000000,640.000000) scale(0.100000,-0.100000)"
fill="#000000" stroke="none">
<path d="M2105 5403 c-835 -340 -1298 -553 -1323 -608 -12 -27 -16 -55 -7 -55
3 0 81 38 173 84 368 184 746 351 1064 472 92 35 176 69 187 75 33 21 51 82
23 78 -4 0 -56 -21 -117 -46z"/>
<path d="M995 5285 c-47 -103 -55 -155 -26 -184 11 -11 27 -21 34 -21 23 0 48
35 54 76 5 36 4 37 -9 20 -17 -21 -45 -16 -55 10 -3 9 6 50 21 92 14 41 24 77
21 80 -2 3 -21 -30 -40 -73z"/>
<path d="M10265 5269 c-40 -84 -45 -135 -15 -170 l20 -24 30 33 c35 38 38 52
9 59 -35 9 -41 47 -19 110 11 31 18 59 15 61 -2 3 -20 -28 -40 -69z"/>
<path d="M11205 5294 c-699 -243 -1051 -376 -1082 -410 -19 -20 -32 -64 -20
-64 1 0 39 15 84 34 163 69 421 163 868 317 143 50 269 96 281 104 27 18 38
65 15 64 -9 0 -74 -21 -146 -45z"/>
<path d="M2156 5298 c-61 -93 -68 -208 -14 -242 23 -14 55 15 70 66 13 43 5
61 -16 33 -8 -11 -20 -16 -30 -12 -20 8 -21 57 -1 122 16 56 13 67 -9 33z"/>
<path d="M535 5216 c-54 -118 -58 -142 -41 -248 30 -192 56 -586 56 -861 0
-108 0 -108 -22 -101 -36 10 -110 68 -144 111 -48 61 -73 110 -94 186 -41 147
-16 309 84 551 20 49 35 93 33 100 -5 15 -89 -115 -121 -188 -62 -140 -96
-295 -96 -438 0 -258 102 -450 295 -555 l70 -38 6 -60 c4 -33 12 -249 18 -480
6 -231 16 -487 22 -570 23 -344 76 -504 213 -651 31 -32 56 -67 56 -76 0 -43
51 -260 74 -317 81 -201 236 -365 427 -455 103 -49 177 -67 304 -73 380 -19
741 195 1015 602 46 68 53 74 113 95 90 32 165 86 212 154 l40 58 59 -69 c114
-131 361 -369 433 -416 39 -26 122 -69 185 -96 548 -235 1338 -371 2158 -371
936 0 1753 167 2378 485 206 104 295 164 331 220 40 63 89 223 97 318 l6 77
53 16 c72 20 132 75 201 184 81 129 88 123 44 -39 -11 -41 -20 -95 -20 -121 0
-66 26 -158 61 -211 74 -116 233 -164 354 -108 81 37 203 169 355 386 74 106
138 193 142 193 3 0 9 -28 13 -62 10 -93 42 -245 66 -318 59 -183 170 -317
323 -392 l88 -43 32 -81 c56 -141 113 -231 211 -329 130 -130 243 -189 420
-221 102 -18 167 -18 281 1 249 40 467 152 663 340 140 135 260 311 310 456
26 76 66 153 166 319 154 255 219 406 273 630 47 194 57 285 56 510 0 184 -3
217 -27 321 -67 295 -168 530 -420 974 -72 127 -186 342 -254 478 -68 136
-128 245 -133 242 -5 -3 -31 -45 -57 -93 l-48 -87 3 -185 c1 -102 7 -402 14
-668 6 -265 9 -484 7 -486 -2 -2 -51 2 -109 10 -555 72 -1022 83 -1194 27
-111 -36 -186 -159 -172 -284 13 -131 45 -164 368 -385 32 -21 58 -44 58 -49
0 -6 -25 -37 -55 -69 l-56 -58 -32 25 c-52 39 -90 56 -158 66 -139 23 -305
-32 -447 -146 -24 -20 -45 -34 -47 -31 -9 8 -24 761 -16 776 5 10 47 28 99 44
148 45 294 121 502 262 132 90 213 168 245 238 22 50 53 188 72 322 l8 60 170
104 c152 94 170 103 180 87 46 -79 74 -111 118 -134 94 -48 203 -19 258 67 86
136 106 312 49 438 -25 59 -29 55 -65 -69 -30 -100 -30 -108 -5 -157 l20 -39
-29 -16 c-39 -20 -124 -19 -167 1 -72 35 -95 98 -69 199 25 102 11 101 -62 -3
-97 -140 -128 -174 -177 -203 -43 -24 -62 -29 -121 -29 -113 1 -141 19 -199
129 -27 50 -53 90 -59 88 -8 -2 -47 -117 -63 -189 -4 -19 6 -61 35 -139 47
-124 81 -268 81 -346 0 -49 -2 -53 -47 -93 -156 -137 -504 -314 -744 -378
l-37 -10 -6 46 c-12 85 -7 148 11 164 10 8 74 51 143 94 126 79 216 158 326
289 44 51 53 58 67 47 12 -10 18 -10 31 3 18 18 21 56 7 70 -6 6 -6 28 -1 55
16 78 12 118 -10 130 -42 22 -89 -9 -126 -82 -32 -64 -30 -81 12 -115 31 -25
35 -32 26 -50 -20 -36 -189 -190 -339 -307 l-148 -115 -6 29 c-3 16 -11 138
-18 272 -17 364 -31 553 -46 653 -19 122 -31 185 -39 192 -6 7 -41 -68 -76
-166 -23 -61 -23 -68 -12 -175 17 -148 40 -558 48 -833 l7 -223 -36 0 c-19 0
-71 7 -114 15 -173 33 -294 129 -379 299 -47 96 -48 98 -48 194 1 113 20 191
88 357 46 112 50 139 14 95 -46 -57 -111 -211 -163 -383 -21 -71 -41 -110
-109 -210 -100 -146 -190 -302 -260 -446 l-51 -106 0 -110 c0 -120 14 -163 69
-214 71 -66 180 7 236 157 32 85 44 137 36 157 -5 15 -13 8 -39 -36 -18 -29
-44 -60 -59 -69 -25 -13 -31 -13 -55 0 -15 8 -36 31 -47 50 -27 46 -26 152 2
231 17 49 218 408 243 434 5 5 9 -11 9 -43 0 -158 72 -334 179 -441 109 -110
212 -153 406 -169 l90 -7 6 -120 c4 -66 7 -265 8 -443 l1 -323 -113 -147 c-63
-81 -159 -208 -214 -282 -151 -202 -230 -269 -335 -285 -35 -5 -56 -2 -90 13
-92 40 -129 151 -98 292 22 100 11 95 99 39 83 -53 196 -98 246 -99 44 0 87
30 123 87 65 101 78 209 42 349 -33 130 -101 204 -187 204 -62 0 -113 -30
-191 -110 -37 -39 -75 -70 -85 -70 -16 0 -77 -81 -115 -155 -49 -97 -153 -161
-248 -153 -47 4 -60 10 -95 44 -22 21 -54 60 -71 87 -16 26 -33 47 -37 47 -8
0 -51 -181 -51 -212 0 -9 16 -48 35 -86 55 -111 87 -217 88 -302 l2 -74 -69
-48 c-304 -210 -929 -409 -1576 -502 -593 -86 -1284 -93 -1870 -20 -510 63
-978 184 -1361 349 -85 37 -166 72 -181 78 -16 6 -28 15 -28 19 0 4 15 31 34
60 44 70 153 288 211 423 149 350 216 640 216 945 0 310 -50 522 -195 825 -91
188 -157 298 -360 598 -265 392 -339 502 -379 568 -37 61 -40 63 -54 44 -27
-36 -63 -120 -73 -175 -5 -29 -10 -127 -10 -219 0 -155 3 -233 30 -722 5 -101
14 -285 20 -409 5 -124 12 -266 16 -317 l6 -92 -63 -31 c-46 -24 -80 -33 -135
-37 -41 -3 -74 -3 -74 1 0 4 13 32 29 64 52 105 66 159 66 267 0 93 -3 105
-33 168 -49 101 -102 120 -199 72 -58 -29 -116 -88 -158 -158 -66 -114 -102
-300 -76 -403 14 -55 13 -56 -64 -80 -71 -22 -202 -29 -277 -14 -67 13 -165
59 -195 92 -22 24 -31 18 167 111 80 37 150 73 156 80 16 18 74 169 74 193 0
18 -14 25 -87 47 -322 95 -689 102 -918 16 -90 -33 -128 -77 -163 -184 -17
-49 -29 -91 -28 -93 2 -1 33 9 70 23 76 29 122 31 171 10 42 -17 215 -134 215
-145 0 -4 -42 -43 -92 -87 -51 -44 -118 -110 -148 -148 -113 -139 -103 -131
-146 -117 -21 6 -39 10 -41 8 -2 -1 7 -21 19 -44 l23 -41 -38 -73 c-57 -113
-121 -321 -142 -470 -4 -27 -11 -48 -16 -48 -13 0 -57 80 -79 144 -48 141 -64
306 -80 811 -6 182 -13 366 -17 411 l-6 81 124 6 c245 12 504 107 858 316 139
82 189 123 224 184 40 68 79 211 86 316 l6 95 75 11 c101 14 159 44 225 118
30 33 55 64 55 69 0 23 19 3 34 -37 45 -117 213 -163 319 -89 44 31 100 114
118 174 20 67 23 202 6 261 -18 59 -52 103 -61 78 -3 -8 -17 -45 -31 -83 -28
-78 -32 -123 -10 -152 35 -47 -1 -74 -100 -74 -60 0 -106 26 -142 79 -27 40
-29 70 -7 132 17 46 13 86 -6 74 -6 -4 -45 -58 -86 -122 -102 -154 -162 -193
-299 -193 -102 0 -130 26 -243 220 -7 11 -13 0 -25 -40 -38 -133 -38 -145 10
-290 45 -133 84 -356 70 -393 -9 -24 -152 -115 -299 -192 -166 -86 -326 -149
-488 -190 -162 -42 -359 -58 -393 -32 -18 13 -27 101 -47 472 -25 457 -66 875
-87 875 -2 0 -19 -33 -38 -74z m2880 -951 c315 -478 414 -767 415 -1201 0
-305 -58 -617 -165 -884 -35 -88 -181 -409 -189 -417 -13 -14 -288 157 -369
229 l-37 33 19 64 c34 109 44 269 37 575 -3 155 -9 336 -12 403 -7 135 -3 164
26 193 34 34 50 26 50 -24 0 -138 102 -235 235 -224 178 15 280 165 280 413 0
99 -3 116 -27 168 -15 31 -33 57 -41 57 -10 0 -23 -33 -41 -104 l-26 -105 30
-62 c16 -34 27 -67 23 -72 -14 -23 -115 -57 -171 -57 -111 0 -153 51 -160 193
-3 67 -8 90 -20 94 -23 9 -79 -26 -127 -79 l-43 -48 -6 62 c-5 60 -13 208 -36
673 -5 110 -12 306 -16 435 l-7 235 134 -190 c73 -104 183 -266 244 -360z
m8845 40 c202 -351 309 -607 367 -877 25 -114 27 -141 27 -368 0 -265 -7 -323
-64 -545 -36 -140 -71 -229 -160 -402 l-70 -138 5 85 c8 110 -14 233 -56 318
-38 77 -124 168 -201 211 l-58 33 0 236 c-1 131 -5 308 -10 396 -4 87 -6 164
-3 171 2 7 12 15 22 18 16 4 91 177 91 211 0 9 -17 16 -48 20 -84 11 -78 -16
-91 421 -6 215 -14 458 -17 540 l-6 150 84 -150 c47 -82 131 -231 188 -330z
m-1710 309 l0 -35 -30 18 c-44 25 -38 50 13 52 13 1 17 -7 17 -35z m-7924
-1059 c27 -18 52 -70 63 -132 9 -45 8 -49 -23 -78 -62 -58 -114 -88 -141 -81
-30 8 -115 112 -115 142 0 12 13 39 29 60 64 88 139 123 187 89z m8518 -15
c248 -12 553 -37 572 -48 8 -4 -26 -23 -84 -46 -192 -78 -423 -184 -531 -245
-60 -33 -115 -61 -121 -61 -7 0 -45 31 -86 69 -40 38 -120 99 -176 136 -57 37
-124 82 -150 99 -27 17 -47 37 -45 45 3 20 66 39 165 49 124 13 205 13 456 2z
m-9387 -61 c35 -6 63 -14 63 -18 -1 -11 -144 -71 -171 -71 -16 0 -44 18 -80
50 l-54 49 89 1 c49 0 118 -5 153 -11z m10145 -475 l3 -336 -70 6 c-38 4 -203
11 -365 16 -294 9 -363 15 -469 45 -78 22 -191 67 -191 75 0 8 93 80 126 98
18 10 26 5 64 -33 56 -57 68 -48 72 48 l3 72 120 59 c158 78 654 285 682 286
l22 0 3 -336z m-10241 43 c194 -209 396 -230 733 -80 l98 44 67 -23 c47 -16
89 -23 146 -23 87 0 135 16 221 75 30 20 46 26 49 17 5 -17 25 -479 32 -752
l6 -231 -31 -26 c-31 -26 -158 -75 -168 -65 -3 3 -1 31 5 63 38 202 -23 424
-146 533 -31 28 -86 65 -122 84 -141 74 -235 92 -591 117 -519 36 -710 63
-710 98 0 10 105 111 157 151 51 39 153 101 166 101 5 0 45 -38 88 -83z m-418
-326 c170 -123 248 -145 544 -161 219 -11 336 -23 443 -45 302 -63 472 -205
509 -427 15 -89 5 -118 -44 -118 -59 0 -111 34 -145 93 -31 55 -40 94 -43 192
-2 53 -5 60 -23 63 -12 2 -97 -36 -195 -87 -364 -187 -528 -232 -864 -235
-203 -1 -306 28 -431 123 l-49 37 1 66 c2 92 29 209 68 300 31 70 135 258 144
258 2 0 40 -27 85 -59z m9272 28 c68 -19 69 -22 20 -112 -86 -160 -140 -378
-171 -689 -3 -38 -10 -68 -14 -68 -14 0 -86 58 -132 107 -83 90 -136 221 -174
428 -26 148 -19 165 106 251 120 82 256 113 365 83z m203 -149 c129 -115 289
-150 686 -150 105 0 246 -7 313 -15 180 -21 193 -24 197 -49 3 -11 7 -124 10
-250 l6 -228 -30 -28 c-38 -35 -107 -55 -196 -55 -60 0 -77 4 -111 27 -56 37
-83 96 -93 204 -4 47 -11 89 -17 95 -5 5 -85 -34 -203 -101 -319 -180 -436
-220 -652 -220 -162 0 -173 4 -187 70 -31 142 14 384 105 563 25 49 107 187
112 187 2 0 29 -23 60 -50z m-1388 2 c26 -19 79 -107 80 -130 0 -20 -53 -6
-130 34 -80 43 -116 72 -104 84 42 42 106 46 154 12z m2802 -312 c96 -85 158
-207 158 -311 0 -136 -232 -431 -465 -589 -445 -302 -934 -251 -1227 128 -49
62 -44 72 39 72 147 0 372 92 629 256 58 37 108 64 111 60 4 -3 10 -35 14 -71
25 -206 200 -299 396 -211 69 31 142 101 166 158 63 150 86 254 94 421 4 93
10 137 18 137 6 0 36 -22 67 -50z m-9722 -261 c0 -112 53 -218 135 -267 25
-15 45 -30 45 -33 0 -3 -38 -43 -84 -87 -260 -249 -528 -366 -804 -349 -124 7
-194 26 -310 83 -153 76 -277 205 -366 383 -31 60 -34 72 -19 67 68 -27 195
-56 291 -67 258 -29 490 31 897 231 99 48 188 89 198 89 14 1 17 -8 17 -50z"/>
<path d="M3251 4224 c-58 -24 -113 -52 -123 -61 -16 -15 -26 -63 -12 -63 15 0
221 93 236 107 18 16 25 64 11 62 -5 0 -55 -20 -112 -45z"/>
<path d="M3291 3935 c-84 -71 -53 -201 53 -221 68 -12 146 58 146 130 0 96
-125 152 -199 91z"/>
<path d="M3332 2771 c-34 -49 -62 -94 -62 -99 0 -5 38 -40 84 -78 47 -38 85
-73 85 -77 1 -4 -28 -48 -64 -96 -36 -49 -65 -93 -65 -98 0 -16 186 -162 197
-154 13 8 123 179 123 191 0 4 -38 38 -85 74 l-84 67 55 82 c75 113 80 123 64
142 -24 29 -161 135 -174 135 -7 0 -40 -40 -74 -89z"/>
<path d="M12326 3728 c-26 -51 -50 -112 -53 -135 -7 -51 11 -100 39 -109 26
-8 74 37 82 78 8 39 2 45 -20 24 -48 -48 -71 29 -34 111 66 145 56 166 -14 31z"/>
<path d="M12304 3320 c-29 -4 -56 -10 -62 -14 -15 -9 -135 -187 -129 -192 2
-3 53 -6 113 -8 114 -4 194 -14 194 -25 0 -4 -67 -40 -150 -81 -137 -68 -185
-100 -127 -87 12 3 45 9 72 12 109 15 154 34 230 101 87 76 144 150 152 198 5
30 2 36 -23 49 -73 38 -191 58 -270 47z"/>
<path d="M12461 2772 c-11 -21 -27 -67 -36 -103 -9 -35 -18 -65 -20 -67 -1 -1
-13 25 -25 59 -40 107 -121 163 -148 104 -7 -14 -12 -30 -12 -35 0 -15 54 -60
72 -60 22 0 39 -34 68 -128 27 -90 37 -85 69 38 35 131 45 155 64 153 9 -2 25
-4 34 -5 20 -3 28 22 19 58 -5 19 -13 24 -36 24 -24 0 -33 -7 -49 -38z"/>
<path d="M11659 3086 c-10 -22 -9 -39 5 -96 19 -73 17 -100 -9 -100 -36 0 -62
44 -70 117 -12 125 -33 121 -44 -9 -6 -71 -10 -83 -35 -104 -33 -29 -40 -30
-65 -5 -17 17 -19 29 -14 98 5 73 4 77 -12 62 -23 -22 -39 -152 -24 -196 21
-66 75 -70 129 -12 37 40 38 41 49 20 6 -11 25 -28 42 -37 28 -14 33 -14 56 1
51 34 64 107 37 210 -19 74 -29 86 -45 51z"/>
<path d="M2795 2848 c-45 -95 -52 -161 -20 -184 10 -8 24 -13 29 -11 16 5 45
50 52 82 7 27 6 29 -9 16 -25 -20 -47 -6 -47 28 0 17 11 55 24 86 39 87 13 73
-29 -17z"/>
<path d="M1333 2454 c-4 -10 -6 -39 -4 -64 9 -119 7 -138 -18 -164 -28 -30
-62 -33 -87 -9 -14 14 -16 32 -12 116 5 97 5 98 -14 79 -23 -22 -40 -163 -27
-220 21 -94 120 -95 159 -2 12 28 30 41 30 21 0 -4 11 -20 25 -35 28 -30 84
-36 109 -11 8 8 20 39 27 69 11 50 10 61 -15 140 -14 47 -30 87 -35 90 -5 3
-11 -16 -15 -43 -5 -38 -2 -63 14 -103 28 -73 26 -88 -8 -88 -43 0 -58 25 -83
130 -24 103 -34 124 -46 94z"/>
<path d="M1741 2376 c-29 -47 -54 -93 -55 -102 -1 -18 200 -148 215 -139 10 7
109 189 109 202 0 10 -168 112 -197 119 -14 4 -31 -15 -72 -80z"/>
<path d="M10291 2589 c-84 -148 -99 -209 -65 -257 25 -36 55 -25 83 31 13 26
20 51 16 55 -4 4 -10 1 -12 -5 -3 -7 -13 -13 -24 -13 -34 0 -33 41 5 135 40
99 39 95 28 95 -5 0 -19 -19 -31 -41z"/>
<path d="M11245 2347 c-19 -42 -35 -91 -35 -110 0 -33 24 -67 48 -67 17 0 62
71 62 99 l0 24 -25 -23 -24 -23 -12 26 c-10 22 -8 36 10 83 32 84 16 78 -24
-9z"/>
<path d="M10806 2321 c-98 -155 -108 -174 -94 -187 32 -31 195 -124 212 -122
22 3 139 185 129 201 -4 7 -146 101 -210 140 -8 5 -21 -7 -37 -32z"/>
<path d="M11760 2259 c-12 -22 -27 -70 -33 -107 l-13 -67 -17 49 c-26 75 -65
135 -92 142 -34 8 -45 -2 -45 -41 0 -30 6 -39 40 -60 22 -14 40 -30 40 -36 0
-6 14 -44 32 -86 27 -66 33 -74 43 -59 7 9 18 54 25 99 15 99 34 141 58 132
31 -12 35 -10 45 17 13 33 -4 58 -39 58 -18 0 -29 -10 -44 -41z"/>
<path d="M11266 1560 c-28 -33 -43 -79 -53 -152 -3 -27 -9 -48 -13 -48 -3 0
-14 25 -24 55 -32 102 -114 181 -151 144 -8 -7 -16 -30 -17 -49 -3 -33 -1 -36
55 -64 l57 -29 26 -86 c14 -47 28 -93 30 -101 10 -27 35 37 55 139 27 136 31
145 74 137 19 -4 35 -3 35 1 0 4 3 17 6 29 6 23 -18 54 -41 54 -7 0 -25 -14
-39 -30z"/>
<path d="M2022 1743 c-21 -8 -63 -101 -77 -175 -7 -38 -15 -71 -17 -73 -2 -3
-13 21 -23 53 -45 131 -185 208 -185 101 0 -32 39 -67 83 -76 35 -7 51 -30 78
-113 25 -77 39 -98 50 -78 4 7 17 60 29 118 12 58 25 115 28 128 6 31 25 37
55 17 24 -15 26 -15 36 4 15 27 14 66 -1 78 -19 14 -41 21 -56 16z"/>
<path d="M6400 5130 c-15 -46 -3 -73 20 -45 11 13 11 18 1 24 -8 5 -10 18 -5
34 10 42 -1 32 -16 -13z"/>
<path d="M6253 5118 c-6 -7 -13 -22 -17 -32 -6 -18 -7 -18 -29 3 -13 11 -26
21 -30 21 -15 0 -6 -34 16 -54 12 -12 27 -31 34 -42 11 -17 12 -16 12 14 1 41
17 72 36 72 9 0 12 6 9 15 -7 18 -18 19 -31 3z"/>
<path d="M6600 5090 c-12 -30 -6 -174 20 -443 19 -191 14 -218 -42 -248 -29
-16 -33 -5 -47 122 -14 128 -26 168 -44 150 -11 -11 -12 -49 -4 -261 l2 -54
-55 -17 c-30 -9 -58 -15 -62 -12 -5 2 -8 31 -8 65 0 53 2 59 15 48 9 -7 18
-10 22 -7 6 7 -23 92 -59 174 -19 44 -21 46 -35 27 -12 -15 -14 -40 -9 -119 3
-55 8 -123 12 -151 l6 -51 -32 -7 c-18 -3 -67 -6 -109 -6 -150 0 -225 67 -240
216 -5 41 -3 70 3 79 18 21 156 50 177 37 13 -8 18 -8 22 2 3 7 26 19 51 26
50 14 67 34 68 81 1 37 -33 75 -90 101 -40 18 -45 18 -68 3 -37 -24 -50 -59
-35 -92 16 -35 0 -48 -77 -64 -66 -13 -71 -8 -72 71 -1 58 -24 208 -35 218 -3
4 -11 0 -16 -8 -10 -15 -4 -265 7 -294 6 -15 -21 -46 -39 -46 -7 0 -25 21 -42
45 -16 25 -52 63 -79 85 -42 35 -52 39 -64 27 -7 -8 -16 -33 -19 -55 -5 -37
-4 -40 15 -35 26 6 39 -2 92 -60 l43 -48 -54 -55 c-62 -63 -149 -124 -177
-124 -24 0 -52 31 -52 58 0 25 35 121 62 171 l20 36 -35 -38 c-80 -87 -89
-238 -18 -277 55 -29 107 -2 216 109 33 33 62 61 66 61 4 0 10 -21 14 -46 6
-44 5 -48 -32 -86 -21 -22 -80 -72 -131 -110 -51 -39 -91 -72 -89 -74 4 -4
165 65 195 84 31 20 74 85 103 156 l24 59 11 -64 c17 -102 32 -135 80 -178 59
-51 121 -65 248 -56 l93 7 6 -38 c4 -22 7 -58 7 -81 0 -41 -1 -42 -37 -49 -21
-5 -87 -8 -148 -8 -101 -1 -115 1 -167 27 -58 29 -76 48 -118 131 -34 67 -48
74 -101 51 -57 -26 -90 -62 -138 -149 -23 -40 -48 -79 -56 -86 -39 -32 -95 33
-95 111 0 27 -4 49 -10 49 -6 0 -10 -28 -10 -65 0 -75 24 -134 66 -161 24 -16
27 -16 51 2 14 11 44 52 67 93 47 82 105 134 146 129 19 -2 31 -16 52 -58 35
-71 97 -126 161 -145 59 -17 184 -19 276 -5 35 6 66 9 68 6 3 -3 7 -43 10 -89
l6 -84 -33 -6 c-90 -18 -283 3 -358 39 -59 29 -95 70 -122 141 -10 26 -24 52
-32 57 -19 12 -51 -12 -99 -73 -22 -29 -59 -59 -96 -79 -75 -40 -118 -82 -139
-140 -24 -62 -12 -90 51 -122 46 -23 64 -25 208 -29 114 -2 157 -6 153 -15
-64 -147 -69 -164 -70 -221 -1 -75 33 -149 84 -183 78 -53 238 -7 383 109 102
82 137 143 137 238 0 85 5 92 64 89 l51 -3 6 -145 c6 -161 19 -218 61 -262 27
-29 32 -30 91 -26 81 5 155 41 181 87 26 44 27 152 3 197 -23 44 -83 94 -113
94 -52 0 -109 -90 -97 -153 7 -38 27 -50 96 -58 41 -5 65 -13 74 -25 16 -22
11 -27 -51 -48 -142 -47 -185 2 -194 220 l-5 132 149 6 c231 9 437 25 494 37
28 6 53 9 56 6 2 -2 -7 -29 -22 -60 -42 -94 -17 -153 33 -78 29 43 30 60 1 35
l-21 -19 6 35 c10 66 25 90 57 97 21 4 29 10 26 20 -3 8 5 36 19 63 51 101 69
193 69 345 -1 147 -23 266 -74 396 -52 131 -163 310 -181 292 -5 -5 -17 -34
-28 -64 -16 -47 -18 -74 -14 -163 l6 -108 -49 7 c-27 4 -50 9 -52 10 -4 3 -22
164 -22 196 0 21 8 29 40 42 42 16 58 45 18 32 -68 -21 -68 -21 -68 24 0 39 1
41 20 31 11 -6 20 -7 20 -1 0 18 -63 181 -70 181 -21 0 -30 -57 -24 -164 l7
-112 -32 -13 c-17 -8 -31 -20 -31 -28 0 -11 5 -13 18 -8 50 21 49 22 58 -77 4
-51 6 -100 5 -108 -2 -8 -18 -27 -36 -42 -18 -15 -38 -41 -45 -58 -12 -29 -10
-104 5 -160 6 -24 6 -24 -9 -6 -24 30 -36 108 -46 315 -6 108 -19 273 -30 366
-11 94 -20 173 -20 178 0 20 -20 3 -29 -26 -8 -24 -8 -74 -1 -178 14 -196 40
-653 40 -712 0 -45 -2 -49 -35 -63 -19 -7 -41 -14 -50 -14 -19 0 -55 57 -55
88 0 27 2 27 -69 -2 l-58 -24 -7 86 -7 86 50 45 c28 25 55 59 61 74 13 37 13
243 -1 385 -6 62 -9 116 -5 119 3 3 12 0 21 -7 13 -10 15 -9 15 9 0 25 -62
191 -71 191 -4 0 -12 -13 -19 -30z m-455 -332 c30 -13 32 -24 6 -31 -12 -3
-27 3 -35 12 -29 32 -17 40 29 19z m1134 -208 c98 -191 133 -324 134 -510 0
-129 -11 -187 -54 -285 -18 -40 -22 -43 -67 -49 -26 -3 -195 -6 -377 -8 l-330
-3 -3 27 c-4 32 -6 31 153 77 61 18 148 48 194 66 86 34 101 36 101 9 0 -28
28 -70 55 -82 40 -18 61 -15 99 18 50 44 66 102 66 233 0 108 0 109 31 140 31
31 56 83 46 94 -3 3 -22 -7 -42 -22 -19 -15 -38 -26 -40 -23 -3 3 -8 42 -12
88 -5 62 -3 81 5 76 16 -10 15 0 -4 29 -14 21 -34 161 -33 235 0 24 0 24 15 5
8 -10 36 -62 63 -115z m-1428 -40 c-9 -23 -10 -23 -10 11 -1 20 2 39 7 43 11
12 14 -27 3 -54z m1318 -118 c6 -11 13 -60 17 -109 l7 -90 -46 -18 c-44 -17
-47 -16 -84 1 -43 22 -91 91 -99 146 -5 31 -3 37 16 43 31 10 40 -8 40 -77 0
-32 4 -58 9 -58 10 0 31 85 31 124 0 28 15 42 50 49 45 8 49 7 59 -11z m-660
-213 c1 -35 -4 -61 -11 -67 -22 -17 -98 -36 -108 -26 -5 5 -10 42 -12 83 l-3
74 60 22 60 23 6 -27 c4 -14 7 -51 8 -82z m447 -105 c43 -18 88 -13 176 22 34
13 63 22 66 20 2 -3 6 -52 9 -109 6 -101 5 -104 -18 -120 -31 -22 -82 -22
-102 1 -8 9 -18 34 -22 55 -9 45 -16 46 -106 6 -125 -54 -361 -120 -377 -104
-4 3 -9 53 -10 110 l-4 104 32 16 c37 19 60 14 60 -13 0 -11 9 -31 21 -46 16
-20 29 -26 61 -26 33 0 46 6 72 34 18 18 37 52 44 74 l12 41 25 -25 c14 -14
41 -32 61 -40z m-436 -93 c0 -26 3 -68 6 -93 8 -57 -11 -78 -70 -78 l-43 0 -6
68 c-12 116 -11 118 31 135 20 8 47 15 60 16 20 1 22 -4 22 -48z m-711 -85
c56 -136 165 -189 381 -186 163 2 170 2 170 -13 0 -19 -144 -27 -464 -27 -263
0 -302 5 -354 43 l-32 24 23 20 c12 10 48 35 79 53 32 19 78 58 103 87 26 29
52 53 59 53 7 0 22 -24 35 -54z m719 -183 c-2 -22 -9 -29 -32 -31 -75 -9 -108
36 -36 49 68 12 72 11 68 -18z m-157 -130 c5 -15 9 -54 7 -87 l-3 -60 -68 -57
c-99 -83 -202 -131 -291 -136 -59 -4 -77 -1 -104 17 -63 39 -78 121 -40 228
29 84 47 102 106 103 26 1 97 5 157 9 221 14 224 13 236 -17z m412 -137 c9 -7
17 -16 17 -20 0 -8 -38 -8 -68 0 -18 5 -20 9 -11 20 14 17 39 17 62 0z"/>
<path d="M7310 4006 c0 -29 19 -44 31 -25 12 20 11 23 -11 37 -18 11 -20 10
-20 -12z"/>
<path d="M7316 3825 c-7 -29 -18 -32 -36 -10 -7 8 -19 15 -26 15 -25 0 -15
-31 21 -64 l35 -34 6 39 c4 25 13 40 25 44 25 8 25 35 0 35 -12 0 -21 -9 -25
-25z"/>
<path d="M6890 3783 c-71 -26 -110 -53 -75 -52 33 1 168 53 173 67 5 17 -23
13 -98 -15z"/>
<path d="M6917 4054 c-4 -4 -4 -18 -1 -30 8 -33 -4 -30 -18 4 l-12 27 -6 -40
c-6 -38 -7 -39 -17 -16 l-10 25 -7 -28 c-9 -38 -1 -46 47 -43 39 2 42 4 45 32
3 35 -10 79 -21 69z"/>
<path d="M6624 3966 c-15 -40 21 -80 54 -60 37 24 21 74 -25 74 -13 0 -26 -6
-29 -14z"/>
<path d="M5706 3799 c-10 -16 -15 -36 -12 -44 7 -19 60 -45 73 -37 12 8 33 46
33 60 0 8 -63 52 -73 52 -2 0 -11 -14 -21 -31z"/>
<path d="M6270 3568 c-14 -5 -95 -39 -180 -75 -149 -63 -190 -86 -178 -98 6
-6 345 139 375 160 24 18 14 25 -17 13z"/>
<path d="M6000 3532 c0 -22 4 -32 12 -30 18 6 20 22 3 43 -14 19 -14 18 -15
-13z"/>
<path d="M6140 3407 c-91 -45 -166 -88 -168 -95 -5 -16 11 -10 199 82 75 36
139 73 143 81 3 8 2 15 -2 15 -4 0 -81 -37 -172 -83z"/>
<path d="M11110 5091 c-61 -87 -68 -201 -13 -201 24 0 63 48 63 76 0 26 -1 27
-20 9 -10 -9 -26 -15 -35 -12 -24 10 -21 25 19 120 20 45 15 47 -14 8z"/>
<path d="M6455 5047 c-261 -86 -520 -191 -529 -213 -3 -8 -3 -14 0 -14 3 0 96
35 207 79 111 43 238 91 282 106 73 25 116 49 104 58 -2 3 -31 -5 -64 -16z"/>
<path d="M9592 5058 c-6 -7 -27 -47 -46 -88 -44 -92 -48 -155 -13 -196 16 -19
29 -25 43 -20 23 7 54 55 54 84 0 26 -18 38 -26 18 -9 -24 -33 -19 -45 7 -9
19 -5 41 20 112 31 88 34 107 13 83z"/>
<path d="M6000 5031 c-29 -54 5 -91 46 -50 22 23 23 26 8 47 -19 27 -40 28
-54 3z"/>
<path d="M6890 4944 c-13 -34 -13 -47 4 -69 13 -18 14 -18 25 3 15 28 14 33
-5 25 -14 -5 -16 0 -12 30 5 43 1 47 -12 11z"/>
<path d="M6415 4917 c-126 -49 -135 -53 -135 -72 0 -9 24 -4 88 20 128 47 192
76 192 86 0 16 -34 8 -145 -34z"/>
<path d="M5690 4892 c0 -5 10 -17 21 -28 12 -10 35 -38 51 -62 36 -52 45 -49
22 7 -21 52 -94 116 -94 83z"/>
<path d="M1494 4870 c-47 -19 -102 -126 -90 -175 3 -13 22 -33 41 -45 19 -12
35 -25 35 -30 0 -42 -256 -274 -492 -445 -38 -27 -68 -52 -68 -57 0 -21 40 -1
157 77 202 137 289 213 384 337 l60 78 35 -15 c40 -17 60 -12 68 17 4 16 -4
30 -29 54 -31 29 -34 36 -25 59 17 45 12 113 -10 135 -22 22 -33 23 -66 10z
m34 -92 c7 -7 12 -27 12 -46 0 -30 -2 -33 -22 -27 -31 10 -68 34 -68 45 0 15
30 40 49 40 9 0 22 -5 29 -12z"/>
<path d="M6460 4811 c0 -17 -4 -31 -10 -31 -5 0 -10 7 -10 15 0 8 -4 15 -10
15 -11 0 -12 -15 -4 -47 5 -19 12 -22 43 -20 20 1 42 6 49 10 18 12 15 62 -5
78 -15 13 -16 11 -10 -20 6 -29 5 -32 -8 -21 -8 7 -15 18 -15 26 0 7 -4 16
-10 19 -6 4 -10 -7 -10 -24z"/>
<path d="M6325 4758 c-9 -23 2 -51 17 -46 18 6 20 22 4 43 -14 19 -15 19 -21
3z"/>
<path d="M1010 4698 c-16 -29 -42 -86 -56 -126 -31 -83 -27 -111 18 -145 24
-18 32 -19 66 -9 58 18 94 61 100 121 5 59 -11 92 -63 122 -30 18 -32 22 -25
54 11 50 -5 43 -40 -17z m47 -123 c23 -14 43 -32 43 -40 0 -36 -102 -47 -123
-14 -12 19 8 79 26 79 6 0 30 -11 54 -25z"/>
<path d="M6716 4678 c-9 -41 -3 -68 14 -68 15 0 25 31 12 39 -5 3 -12 20 -14
36 -4 30 -4 30 -12 -7z"/>
<path d="M10182 4647 c-62 -134 -65 -175 -11 -203 29 -15 35 -14 75 1 50 19
74 54 74 107 0 43 -20 71 -66 93 -30 14 -35 21 -31 41 8 43 -11 25 -41 -39z
m82 -97 c19 -19 19 -19 -7 -31 -47 -21 -105 15 -81 52 9 16 65 3 88 -21z"/>
<path d="M5591 4583 c-18 -63 -10 -80 29 -68 46 14 46 71 0 95 -17 9 -20 6
-29 -27z"/>
<path d="M6098 4548 c-59 -22 -109 -47 -112 -55 -4 -10 1 -12 21 -7 61 16 217
80 221 92 6 19 -15 14 -130 -30z"/>
<path d="M2580 4480 c-480 -199 -488 -203 -512 -251 -9 -19 -14 -36 -12 -38 2
-2 70 27 151 64 81 37 242 105 357 151 115 46 217 91 227 100 18 17 27 65 12
63 -5 0 -105 -40 -223 -89z"/>
<path d="M9641 4484 c-24 -30 -38 -77 -49 -161 l-8 -58 -17 39 c-24 55 -63
104 -101 127 -17 10 -34 19 -38 19 -18 0 -38 -35 -38 -66 0 -30 5 -37 35 -50
19 -7 43 -14 54 -14 18 0 56 -64 91 -155 16 -40 25 -21 39 75 14 105 31 179
42 185 5 3 17 1 27 -4 40 -21 57 34 22 69 -26 26 -34 25 -59 -6z"/>
<path d="M11490 4445 c-414 -126 -475 -146 -492 -167 -21 -23 -24 -62 -5 -55
51 19 354 115 497 157 96 29 185 58 198 66 21 14 30 48 15 57 -5 2 -100 -24
-213 -58z"/>
<path d="M6190 4465 c-7 -9 -11 -18 -8 -20 9 -10 38 7 38 21 0 18 -14 18 -30
-1z"/>
<path d="M6090 4447 c0 -7 14 -26 30 -42 17 -16 30 -35 30 -42 0 -7 5 -13 10
-13 6 0 10 6 10 13 0 6 3 23 6 37 4 18 3 21 -4 11 -7 -10 -14 -6 -28 18 -18
31 -54 43 -54 18z"/>
<path d="M5471 4337 c-6 -6 -11 -29 -11 -50 0 -34 -6 -45 -47 -83 -62 -56 -49
-56 29 1 34 25 70 45 79 45 9 0 19 7 23 15 14 38 -47 98 -73 72z"/>
<path d="M2661 4312 c-45 -64 -91 -176 -91 -223 0 -58 21 -79 80 -79 84 0 130
52 130 146 0 45 4 41 -92 115 -18 13 -19 19 -9 38 19 34 6 36 -18 3z m25 -138
c56 -33 72 -59 45 -74 -29 -15 -87 -12 -105 6 -19 18 -21 65 -4 82 15 15 12
16 64 -14z"/>
<path d="M6679 4300 c-11 -35 -10 -43 3 -56 21 -21 55 -3 64 33 5 20 2 31 -16
45 -32 26 -38 23 -51 -22z"/>
<path d="M11642 4228 c-102 -182 -108 -308 -15 -299 18 2 63 72 63 98 0 29 -7
29 -29 1 -22 -27 -47 -19 -54 19 -4 19 7 58 35 126 22 54 38 100 35 103 -2 3
-18 -19 -35 -48z"/>
<path d="M5936 4217 c-10 -44 3 -67 24 -42 8 9 8 15 2 15 -6 0 -12 15 -14 33
l-4 32 -8 -38z"/>
<path d="M11117 4148 c-60 -109 -76 -144 -69 -155 4 -6 57 -36 119 -66 88 -45
113 -54 122 -43 18 22 100 200 95 207 -6 10 -210 119 -222 119 -6 0 -26 -28
-45 -62z"/>
<path d="M6054 4165 c-4 -9 6 -27 25 -44 17 -16 31 -36 31 -45 0 -30 18 -16
24 19 5 25 15 39 32 47 27 12 27 31 0 36 -11 3 -20 -7 -28 -28 l-11 -32 -24
31 c-27 34 -41 39 -49 16z"/>
<path d="M2219 4088 c-22 -24 -100 -124 -112 -145 -5 -7 31 -43 92 -92 l100
-81 36 42 c19 23 52 66 72 96 l38 54 -30 25 c-67 55 -159 123 -166 123 -5 0
-18 -10 -30 -22z"/>
<path d="M5731 4092 c-48 -18 -73 -50 -30 -37 42 13 89 37 89 46 0 12 -7 11
-59 -9z"/>
<path d="M5450 3908 c0 -21 -4 -38 -10 -38 -5 0 -10 9 -10 20 0 11 -4 20 -10
20 -12 0 -13 -50 -1 -69 6 -10 13 -11 29 -2 11 6 30 11 41 11 26 0 37 40 20
72 l-13 23 -7 -30 c-4 -16 -7 -25 -8 -19 0 5 -8 19 -16 30 -13 18 -14 17 -15
-18z"/>
<path d="M6198 3923 c-14 -14 -22 -15 -43 -5 -39 18 -53 15 -70 -17 -14 -29
-14 -30 14 -50 35 -26 50 -26 66 -4 12 17 15 17 51 -1 l38 -18 23 26 c26 31
23 46 -16 69 -36 21 -43 21 -63 0z"/>
<path d="M9320 3628 c-52 -107 -60 -156 -32 -181 11 -11 29 -17 39 -15 17 3
43 46 58 98 8 25 7 25 -13 6 -52 -46 -68 15 -27 103 14 30 24 59 22 65 -3 6
-23 -28 -47 -76z"/>
<path d="M312 3656 c-22 -25 -35 -56 -47 -113 -32 -143 -31 -141 -40 -118 -26
69 -56 126 -85 158 -61 70 -123 84 -137 30 -9 -39 15 -75 69 -100 53 -26 82
-68 119 -173 12 -36 26 -69 30 -74 13 -15 38 55 49 136 13 93 39 185 56 198 9
8 21 7 42 -4 27 -14 31 -14 36 0 11 29 6 61 -12 77 -27 25 -47 21 -80 -17z"/>
<path d="M5719 3538 c-6 -13 -13 -24 -14 -26 -1 -2 -19 5 -40 15 -36 17 -37
17 -51 -2 -23 -31 -17 -59 18 -79 l31 -19 22 27 c22 27 23 28 53 12 40 -21 39
-21 57 14 21 40 19 47 -15 65 -39 20 -47 19 -61 -7z"/>
<path d="M7065 3530 l-15 -30 -36 18 -36 17 -25 -30 -26 -29 34 -28 c42 -35
54 -35 76 2 20 34 21 35 47 15 27 -21 53 -19 66 4 17 33 11 50 -22 71 -43 26
-45 25 -63 -10z"/>
<path d="M9525 3402 c-288 -151 -798 -437 -817 -460 -16 -18 -33 -72 -22 -72
3 0 88 47 188 103 191 109 393 218 615 333 73 38 144 79 157 91 22 20 34 73
17 73 -5 0 -66 -31 -138 -68z"/>
<path d="M6460 3432 c0 -24 18 -38 31 -25 6 6 2 16 -11 28 -19 18 -20 18 -20
-3z"/>
<path d="M10187 3338 c-19 -40 -41 -92 -48 -116 -11 -38 -10 -45 7 -69 11 -15
32 -31 47 -36 54 -18 137 49 137 111 0 35 -26 78 -66 108 -27 21 -35 33 -31
51 8 43 -11 23 -46 -49z m71 -89 c29 -18 28 -37 -3 -49 -37 -14 -75 3 -75 34
0 13 3 32 6 41 6 14 9 14 28 2 11 -8 31 -20 44 -28z"/>
<path d="M302 3148 c-183 -359 -219 -455 -229 -628 -8 -130 10 -193 76 -260
43 -45 52 -50 92 -50 85 0 147 80 189 244 33 129 24 148 -26 56 -69 -127 -206
-65 -221 99 -7 76 14 154 92 336 125 293 182 455 162 455 -3 0 -64 -114 -135
-252z"/>
<path d="M5725 3370 c-4 -6 -1 -18 6 -26 11 -14 13 -14 21 0 15 26 -12 51 -27
26z"/>
<path d="M7053 3368 c-6 -7 -13 -22 -17 -32 -6 -18 -7 -18 -29 3 -28 25 -43
27 -51 4 -7 -17 9 -33 32 -33 7 0 18 -11 24 -25 15 -34 25 -31 32 10 4 19 16
41 27 49 12 8 18 19 14 25 -8 14 -20 14 -32 -1z"/>
<path d="M932 3323 c-82 -117 -101 -263 -36 -279 37 -9 53 2 75 52 24 53 17
98 -7 52 -17 -32 -26 -34 -48 -12 -23 22 -20 43 14 130 33 82 34 102 2 57z"/>
<path d="M6421 3281 c-25 -25 -26 -35 -5 -55 20 -20 38 -20 59 0 20 21 16 43
-12 61 -19 13 -24 12 -42 -6z"/>
<path d="M9718 3193 c-30 -35 -46 -80 -58 -162 l-13 -83 -39 70 c-41 74 -96
132 -126 132 -25 0 -42 -20 -42 -48 0 -37 18 -61 63 -82 43 -21 75 -63 102
-138 29 -82 36 -95 44 -86 5 5 17 63 25 129 19 137 33 195 46 195 6 0 19 -9
29 -19 18 -18 19 -18 30 6 17 38 13 70 -11 87 -28 20 -31 20 -50 -1z"/>
<path d="M6482 3164 c-19 -37 -20 -38 -33 -16 -16 25 -49 30 -49 7 0 -9 15
-31 34 -49 l33 -34 12 40 c8 25 20 42 32 45 11 3 19 12 17 21 -6 30 -27 23
-46 -14z"/>
<path d="M6278 3167 c-18 -44 6 -93 31 -63 9 10 8 15 -3 19 -8 3 -16 18 -18
34 -2 23 -4 25 -10 10z"/>
<path d="M6443 2931 c-34 -3 -66 -10 -71 -16 -15 -16 -100 -168 -106 -190 -6
-20 -4 -21 78 -12 87 10 206 -1 208 -18 0 -5 -64 -44 -142 -86 -200 -108 -209
-122 -57 -90 130 27 148 37 258 134 106 94 162 167 157 207 -6 49 -175 86
-325 71z"/>
<path d="M8869 2888 c-32 -57 -62 -127 -74 -177 -12 -46 -12 -58 0 -87 26 -62
74 -42 103 44 11 31 0 47 -12 17 -8 -21 -33 -19 -46 4 -16 31 -12 60 20 140
29 74 34 104 9 59z"/>
<path d="M6387 2362 c-27 -30 -117 -174 -117 -186 1 -17 199 -148 218 -144 16
3 122 171 122 195 0 11 -139 117 -186 141 -17 9 -24 8 -37 -6z"/>
<path d="M483 2100 c-42 -25 -83 -89 -90 -137 -4 -33 -1 -42 26 -67 l30 -29
-27 -41 c-40 -59 -52 -91 -52 -139 0 -141 183 -156 371 -31 64 42 103 86 62
69 -95 -40 -198 -69 -264 -73 -69 -4 -78 -2 -104 20 -20 18 -28 33 -27 56 1
43 24 73 94 123 134 96 143 104 146 132 l3 28 -54 -31 c-62 -35 -114 -39 -148
-11 l-24 19 24 26 c30 32 55 33 76 4 16 -23 16 -23 31 -3 24 31 2 105 -30 105
-6 0 -25 -9 -43 -20z"/>
<path d="M9662 1863 c-44 -93 -49 -110 -37 -123 8 -8 55 -35 104 -60 52 -25
91 -50 91 -59 0 -7 -21 -59 -46 -115 -26 -55 -42 -102 -38 -103 5 -2 62 -27
127 -57 116 -54 118 -54 126 -33 5 12 25 62 45 111 19 49 33 93 30 98 -3 5
-50 31 -105 58 -54 28 -99 54 -99 59 0 5 12 35 26 67 15 33 35 78 45 101 l18
42 -115 60 c-64 34 -117 61 -118 61 -2 0 -26 -48 -54 -107z"/>
<path d="M6572 1876 c-17 -22 -39 -102 -59 -215 l-8 -44 -38 74 c-40 80 -56
102 -101 137 -53 41 -92 25 -103 -41 -5 -33 -2 -37 37 -62 23 -15 51 -25 61
-22 24 6 53 -42 93 -157 17 -49 36 -91 42 -93 12 -4 27 54 44 172 23 161 48
208 88 172 18 -16 19 -16 30 8 18 38 15 62 -10 79 -32 22 -54 20 -76 -8z"/>
<path d="M9112 1680 c-42 -30 -68 -63 -94 -121 -44 -97 -343 -283 -675 -420
-45 -19 -83 -38 -83 -42 0 -5 8 -6 18 -3 9 3 61 15 114 25 123 26 192 54 354
146 153 87 218 142 258 217 16 29 30 54 31 56 1 1 22 -9 46 -23 24 -13 60 -25
80 -25 31 0 37 5 52 35 31 65 12 150 -38 173 -20 9 -30 6 -63 -18z m43 -80
c17 -19 17 -20 1 -20 -23 0 -56 18 -56 30 0 17 36 11 55 -10z"/>
<path d="M759 1465 c-42 -92 -48 -151 -19 -187 12 -16 28 -28 35 -28 22 0 55
50 55 83 0 30 0 30 -20 12 -19 -17 -22 -18 -37 -2 -22 22 -20 70 6 131 33 76
15 68 -20 -9z"/>
<path d="M10276 1358 c-109 -187 -137 -323 -70 -348 13 -5 31 -7 39 -4 21 8
55 67 55 95 -1 23 -1 23 -15 6 -21 -29 -58 -18 -68 20 -8 27 -2 48 42 149 53
123 60 155 17 82z"/>
<path d="M2552 1233 c-47 -108 -53 -160 -23 -187 27 -24 51 -17 78 23 25 37
33 75 11 53 -20 -20 -48 -14 -58 14 -9 24 6 84 45 177 4 9 3 17 -2 17 -5 0
-28 -44 -51 -97z"/>
</g>
</svg>
