<?xml version="1.0" standalone="no"?>
<!DOCTYPE svg PUBLIC "-//W3C//DTD SVG 20010904//EN"
 "http://www.w3.org/TR/2001/REC-SVG-20010904/DTD/svg10.dtd">
<svg version="1.0" xmlns="http://www.w3.org/2000/svg"
 width="1280.000000pt" height="1174.000000pt" viewBox="0 0 1280.000000 1174.000000"
 preserveAspectRatio="xMidYMid meet">
<metadata>
Created by potrace 1.15, written by Peter Selinger 2001-2017
</metadata>
<g transform="translate(0.000000,1174.000000) scale(0.100000,-0.100000)"
fill="#000000" stroke="none">
<path d="M6243 11728 c-6 -7 -15 -28 -22 -47 -28 -84 -3 -166 84 -276 84 -107
124 -213 146 -385 14 -116 23 -137 39 -95 21 53 40 157 46 250 15 205 -47 358
-204 508 -64 60 -73 65 -89 45z"/>
<path d="M6855 10801 c-27 -62 -47 -125 -47 -145 0 -20 16 -73 35 -118 43
-100 70 -220 57 -254 -8 -19 -17 -24 -44 -24 -86 0 -104 25 -140 192 -34 159
-88 298 -117 298 -5 0 -24 -29 -41 -65 -37 -80 -39 -132 -8 -235 13 -41 24
-99 24 -128 1 -49 -2 -56 -35 -86 -24 -22 -57 -39 -103 -51 -82 -22 -100 -16
-154 55 l-35 45 9 105 c13 167 11 367 -4 382 -35 35 -104 -62 -136 -193 -35
-141 -48 -399 -25 -481 14 -51 107 -150 171 -182 86 -43 204 -27 317 42 69 43
87 46 167 27 108 -25 183 -4 256 72 82 85 120 217 100 346 -6 40 -23 108 -38
152 -26 79 -138 332 -153 348 -5 4 -29 -41 -56 -102z"/>
<path d="M5553 10482 c-27 -37 -96 -130 -153 -207 -183 -248 -301 -372 -791
-833 -413 -388 -613 -626 -752 -900 -123 -240 -182 -405 -223 -620 -76 -396
10 -796 249 -1160 186 -283 486 -575 706 -686 67 -34 173 -57 226 -49 103 15
185 95 231 225 25 71 34 204 44 618 9 421 12 448 66 665 41 165 144 404 225
522 74 108 94 8 104 -532 11 -565 26 -696 107 -930 117 -338 370 -554 736
-630 120 -25 249 -16 397 27 278 81 493 325 551 626 8 41 14 96 14 123 0 41 3
49 18 49 10 0 83 -61 163 -136 238 -225 341 -298 494 -350 71 -25 95 -28 210
-28 156 0 234 17 349 78 171 90 324 300 381 523 67 264 56 685 -29 1109 -28
140 -68 232 -221 504 -54 96 -133 240 -175 321 -107 201 -528 903 -665 1106
-42 64 -45 65 -53 42 -24 -63 -35 -228 -34 -539 1 -391 16 -581 72 -885 22
-121 52 -287 65 -370 14 -82 31 -163 37 -180 11 -29 148 -265 154 -265 1 0 1
24 -2 53 -2 28 -11 149 -19 267 -9 118 -25 317 -36 441 -11 124 -19 243 -17
264 l3 38 81 -114 c376 -529 590 -891 612 -1032 16 -105 -29 -287 -106 -427
-46 -85 -177 -215 -262 -263 -94 -52 -177 -71 -273 -63 -202 17 -433 159 -510
313 -70 139 -143 391 -192 668 -62 347 -69 367 -305 900 -116 262 -474 964
-486 953 -1 -2 -12 -78 -24 -168 -11 -91 -30 -222 -40 -292 -33 -214 -31 -228
79 -413 136 -230 217 -415 361 -820 70 -198 97 -280 156 -480 12 -41 18 -95
18 -170 1 -99 -2 -117 -28 -180 -91 -218 -251 -399 -421 -475 -145 -64 -344
-88 -479 -56 -156 37 -291 142 -366 287 -82 158 -89 222 -115 1047 -16 491
-16 492 -45 596 -53 188 -105 276 -162 276 -72 0 -223 -159 -388 -410 -77
-117 -175 -318 -189 -385 -10 -50 -21 -234 -41 -655 -30 -640 -101 -885 -271
-930 -76 -21 -178 28 -335 161 -187 158 -316 321 -373 469 -53 136 -66 230
-65 475 1 259 12 362 58 545 39 158 92 285 176 424 138 229 267 377 605 690
371 345 585 578 684 746 93 156 279 535 268 546 -2 2 -26 -27 -54 -64z"/>
<path d="M8637 9983 c-22 -21 6 -280 49 -448 32 -128 185 -588 257 -772 107
-272 317 -726 442 -955 289 -527 546 -867 757 -1003 l28 -17 -16 38 c-49 118
-130 273 -294 564 -200 355 -456 853 -567 1105 -72 164 -128 314 -120 322 21
20 711 -384 1148 -672 272 -180 340 -247 471 -469 116 -196 143 -286 142 -471
-2 -245 -80 -518 -255 -883 -219 -459 -422 -731 -984 -1317 -296 -309 -375
-395 -375 -407 0 -77 780 355 1188 658 188 140 335 295 429 450 58 97 176 331
227 451 80 192 112 427 103 755 -9 299 -44 496 -139 778 -157 467 -322 654
-1199 1356 -237 189 -310 242 -489 350 -250 151 -518 346 -692 505 -100 93
-101 93 -111 82z"/>
<path d="M3624 9782 c-21 -16 -64 -60 -95 -98 -190 -234 -214 -312 -141 -455
20 -40 42 -75 47 -76 6 -2 20 18 32 45 25 55 127 172 150 172 14 0 15 -16 10
-127 -4 -71 -9 -162 -12 -203 -9 -117 23 -132 67 -32 37 82 68 367 68 622 0
176 -35 218 -126 152z"/>
<path d="M2635 9008 c-3 -7 -11 -67 -19 -133 -9 -66 -25 -183 -38 -260 -20
-127 -22 -175 -22 -520 0 -412 8 -502 59 -695 47 -175 90 -229 121 -154 20 47
33 348 34 764 l0 285 72 -120 c39 -66 110 -196 158 -290 123 -240 153 -345
152 -520 -1 -55 -6 -124 -12 -154 -14 -77 -81 -238 -245 -596 -195 -425 -238
-536 -285 -732 -14 -57 -49 -80 -300 -197 -460 -216 -749 -422 -1004 -716
-168 -194 -229 -260 -309 -327 -162 -139 -267 -190 -418 -200 -118 -8 -147 4
-234 93 -148 150 -190 292 -165 545 22 224 59 321 189 504 160 223 337 409
939 985 334 319 464 464 487 545 40 136 74 485 47 485 -12 0 -21 -31 -41 -139
-37 -196 -202 -381 -716 -806 -365 -302 -644 -565 -773 -727 -139 -177 -241
-428 -289 -713 -23 -138 -23 -431 0 -586 26 -171 42 -224 104 -334 31 -55 76
-138 101 -184 l45 -84 -7 -176 c-3 -97 -11 -293 -17 -435 l-11 -259 98 -145
c150 -224 260 -320 444 -391 209 -81 432 -52 630 82 25 17 85 69 134 116 49
47 91 81 93 74 20 -56 86 -174 111 -196 80 -76 184 -46 366 106 90 76 187 140
301 201 152 82 171 98 214 184 73 146 133 361 155 554 25 218 28 271 17 322
-18 75 -68 198 -96 231 -24 29 -25 30 -40 10 -23 -29 -61 -156 -101 -338 -59
-272 -72 -299 -152 -316 -75 -16 -71 -21 -102 144 -27 141 -47 209 -69 236
l-17 21 -32 -36 c-36 -42 -45 -72 -67 -221 -20 -140 -40 -214 -78 -293 -45
-94 -108 -138 -162 -114 -31 15 -41 55 -55 222 -11 142 -17 180 -30 180 -5 0
-87 -75 -183 -168 -252 -241 -360 -312 -526 -348 -135 -28 -261 -15 -379 41
-174 82 -277 256 -289 485 -4 82 -2 109 9 124 14 18 17 16 71 -32 69 -62 118
-79 193 -63 190 38 418 237 872 763 107 124 28 77 770 457 478 246 683 359
783 432 196 145 353 389 414 643 40 166 57 373 35 430 -18 49 -39 39 -241
-117 -117 -90 -211 -141 -244 -133 -32 8 -68 84 -59 123 18 70 109 244 259
495 46 75 90 158 99 183 54 160 69 593 28 808 -79 412 -303 773 -631 1016
-106 78 -140 96 -146 79z"/>
<path d="M6191 8778 c-30 -228 -67 -954 -56 -1093 16 -218 76 -343 187 -389
44 -19 60 -19 112 -5 108 30 249 262 194 317 -20 20 -44 14 -148 -38 l-100
-50 -33 36 c-17 21 -43 53 -56 72 -51 75 -52 87 -50 657 1 514 -2 585 -29 585
-5 0 -15 -42 -21 -92z"/>
<path d="M11570 7455 c-12 -14 -50 -183 -50 -222 0 -28 41 -61 159 -130 245
-142 328 -207 385 -305 35 -60 73 -171 91 -266 12 -62 35 -330 35 -417 0 -12
3 -16 10 -9 25 25 65 415 57 554 -8 125 -22 190 -62 275 -64 140 -195 278
-380 404 -152 104 -226 139 -245 116z"/>
<path d="M9326 7052 c-6 -27 -35 -256 -32 -258 0 0 63 -33 139 -72 388 -200
477 -319 525 -702 6 -47 14 -120 17 -162 4 -43 11 -78 15 -78 18 0 29 78 40
260 23 412 -33 593 -230 753 -119 96 -383 263 -447 281 -17 6 -22 2 -27 -22z"/>
<path d="M1992 6901 c-54 -56 -107 -170 -137 -296 -45 -191 -93 -270 -298
-493 -124 -135 -664 -660 -815 -792 -45 -40 -82 -75 -82 -77 0 -8 290 147 375
200 129 80 291 206 430 335 244 225 392 419 436 572 21 75 24 76 167 84 169
10 217 21 260 60 29 27 35 39 35 74 0 80 -84 204 -219 322 -72 63 -99 65 -152
11z m137 -174 c47 -34 88 -83 79 -93 -24 -24 -184 -32 -212 -11 -17 12 -17 18
-6 53 26 79 39 96 68 89 15 -4 47 -21 71 -38z"/>
<path d="M8690 6265 c-12 -27 -62 -169 -111 -315 l-89 -265 56 -200 c257 -918
354 -1276 354 -1304 -1 -34 -32 -104 -104 -229 -105 -185 -276 -586 -325 -762
-80 -294 -88 -485 -30 -732 32 -138 74 -166 309 -207 218 -39 464 -90 535
-112 55 -17 80 -32 124 -74 l54 -52 -33 -84 c-149 -375 -418 -740 -670 -908
-229 -153 -425 -221 -685 -237 -142 -9 -374 37 -513 103 -91 43 -314 192 -405
270 -195 168 -269 378 -246 693 10 128 61 391 105 540 23 78 30 89 81 135 158
143 226 214 346 359 73 88 144 173 158 190 l26 29 30 -44 c17 -24 57 -102 89
-173 l58 -128 22 44 c39 77 64 168 64 235 0 74 -37 413 -50 462 -7 25 -5 41 7
65 48 93 266 334 492 541 l160 147 -6 231 c-3 128 -8 257 -12 287 l-6 55 -135
-130 c-198 -191 -457 -431 -496 -462 -19 -14 -37 -23 -40 -20 -3 2 -18 78 -34
168 -36 201 -59 278 -116 395 -60 122 -100 168 -146 167 -74 -2 -187 -81 -353
-247 -167 -167 -317 -365 -458 -606 -98 -168 -108 -204 -137 -520 -11 -118
-23 -240 -26 -270 l-6 -55 213 0 c221 0 269 -5 269 -30 0 -17 -71 -76 -125
-102 -72 -36 -139 -46 -269 -40 -139 6 -251 34 -369 93 -162 82 -244 157 -302
279 -88 182 -209 624 -606 2210 -71 286 -132 527 -135 535 -5 12 -8 12 -20 -4
-16 -23 -129 -364 -138 -416 -3 -19 -15 -62 -26 -95 -41 -115 -30 -165 375
-1740 386 -1503 398 -1554 392 -1625 -14 -158 -161 -371 -355 -514 -78 -58
-293 -176 -321 -176 -16 0 -12 70 19 300 24 174 41 440 31 477 l-7 27 -26 -35
c-15 -19 -58 -92 -96 -164 -178 -332 -191 -351 -282 -414 -81 -57 -249 -135
-335 -156 -92 -23 -170 -15 -252 25 -115 57 -179 155 -208 318 -7 40 -15 75
-16 77 -4 3 -37 -7 -269 -79 -129 -39 -289 -114 -383 -178 -128 -87 -250 -234
-317 -381 -87 -193 -140 -499 -140 -808 0 -187 16 -178 129 77 182 409 307
536 626 632 55 17 126 36 158 43 53 11 60 11 85 -8 14 -11 47 -59 72 -107 82
-154 146 -209 281 -241 222 -52 428 20 683 239 48 42 90 76 92 76 3 0 40 -18
82 -39 116 -58 181 -75 292 -74 153 1 290 59 410 173 191 183 337 595 356
1006 l7 142 64 -44 c102 -70 183 -87 508 -104 109 -6 201 -12 202 -14 2 -1
-28 -74 -66 -162 -88 -203 -98 -238 -112 -397 -27 -307 21 -577 148 -831 251
-502 724 -835 1223 -862 92 -5 139 -2 237 14 233 40 477 140 602 245 67 57
269 271 356 377 145 178 230 328 300 530 77 222 101 404 112 835 10 434 -7
489 -185 603 -140 90 -320 149 -592 193 -102 17 -191 32 -197 34 -17 6 6 62
118 295 109 223 152 331 174 428 10 41 21 70 25 65 5 -4 25 -53 45 -108 150
-406 429 -659 725 -659 164 1 384 98 586 258 l67 54 81 -39 c112 -54 204 -79
319 -86 l97 -6 0 -161 c0 -216 29 -521 66 -696 16 -73 100 -290 113 -290 12 0
60 138 70 201 15 100 21 218 30 584 l9 340 43 39 c24 21 105 81 179 134 356
252 537 398 720 582 351 353 553 731 612 1145 20 141 17 592 -5 734 -21 132
-34 163 -77 181 -39 16 -181 8 -265 -15 -126 -34 -341 -168 -685 -426 -401
-302 -467 -379 -590 -689 -93 -234 -102 -268 -170 -685 -28 -170 -55 -326 -61
-346 -11 -44 -27 -51 -155 -77 l-92 -19 -5 351 c-4 302 -8 366 -26 460 -11 60
-23 112 -26 114 -3 3 -17 -5 -31 -19 -35 -32 -94 -157 -144 -304 -112 -324
-257 -492 -513 -595 -188 -75 -331 -53 -471 72 -95 84 -123 160 -286 768 -291
1085 -450 1686 -451 1704 0 11 -4 30 -9 41 -7 17 -11 13 -30 -30z m3748 -1027
c17 -17 15 -67 -7 -129 -104 -304 -490 -727 -989 -1086 -177 -128 -198 -127
-188 3 22 295 208 584 551 858 148 118 369 264 484 320 98 48 128 55 149 34z
m-5065 -922 c44 -18 102 -87 122 -144 19 -58 30 -142 21 -175 -8 -33 -85 -70
-186 -91 -131 -26 -298 -48 -309 -41 -58 35 102 342 222 423 67 46 81 49 130
28z"/>
<path d="M7605 5967 c-44 -24 -246 -138 -450 -253 -203 -116 -415 -236 -471
-267 -190 -106 -284 -175 -400 -291 -98 -98 -117 -124 -157 -207 -45 -90 -77
-215 -62 -240 8 -12 37 9 208 148 243 199 377 292 767 531 498 305 628 421
655 581 4 22 3 41 -2 41 -4 0 -44 -20 -88 -43z"/>
<path d="M4340 5753 c-263 -197 -425 -299 -820 -513 -427 -232 -441 -242 -554
-413 -62 -94 -95 -161 -96 -189 0 -25 8 -22 65 18 216 152 345 229 665 399
597 315 707 408 831 696 22 50 39 92 37 94 -2 1 -59 -40 -128 -92z"/>
<path d="M4570 4985 c-10 -12 -12 -61 -7 -218 6 -201 21 -342 53 -530 13 -72
14 -101 6 -109 -8 -8 -53 29 -169 143 -246 241 -254 247 -272 182 -26 -94 -7
-295 37 -383 34 -68 66 -90 176 -119 105 -28 172 -71 293 -184 79 -76 86 -80
99 -63 51 70 16 360 -81 666 -50 156 -61 214 -51 254 12 48 72 29 170 -51 16
-13 30 -22 32 -21 1 2 -13 63 -31 137 -40 154 -81 225 -159 279 -53 35 -77 40
-96 17z"/>
<path d="M3303 4450 c-43 -14 -116 -97 -153 -176 -34 -72 -127 -501 -137 -631
-9 -115 23 -175 130 -246 81 -54 164 -44 358 43 62 27 115 48 117 45 3 -2 -1
-39 -8 -82 -43 -271 -151 -471 -385 -720 -183 -194 -385 -357 -599 -482 -259
-152 -678 -335 -906 -396 -155 -41 -263 -107 -246 -150 9 -24 96 -28 371 -17
343 15 495 33 696 83 225 55 347 112 527 247 232 173 410 440 557 836 76 205
157 516 176 676 26 225 -31 597 -122 786 -52 110 -162 184 -279 190 -36 2 -79
-1 -97 -6z"/>
<path d="M4887 3579 c-218 -23 -348 -91 -415 -217 -30 -56 -62 -174 -62 -227
l0 -24 68 34 c37 19 87 39 112 44 59 14 146 14 171 1 18 -10 18 -13 4 -46 -32
-77 -147 -204 -379 -419 -114 -106 -166 -164 -166 -187 0 -15 80 -8 134 12
267 100 615 525 747 913 33 96 34 99 15 113 -22 16 -100 17 -229 3z"/>
<path d="M12493 3375 c-102 -47 -275 -263 -297 -370 -3 -16 -13 -121 -21 -232
-17 -225 -22 -258 -40 -273 -21 -17 -40 -2 -109 86 -73 92 -91 101 -126 57
-12 -16 -75 -136 -139 -268 -264 -538 -429 -796 -650 -1016 -97 -96 -148 -136
-307 -242 -185 -122 -255 -180 -237 -198 18 -18 280 65 404 127 295 147 488
390 803 1011 75 148 140 274 145 282 7 11 31 -5 108 -74 108 -96 148 -121 185
-112 32 8 208 190 287 297 139 187 270 529 271 705 0 58 -24 157 -45 187 -43
63 -140 77 -232 33z m72 -287 c-31 -145 -104 -330 -175 -448 -44 -74 -66 -97
-78 -85 -13 13 -4 219 12 290 40 168 124 273 219 275 27 0 28 -2 22 -32z"/>
<path d="M10215 2723 c-9 -43 -33 -145 -53 -228 -37 -149 -37 -151 -37 -365 1
-239 10 -296 67 -403 37 -69 143 -172 213 -206 56 -28 137 -33 199 -12 53 18
113 75 126 119 25 92 2 232 -39 232 -9 0 -48 -23 -86 -51 -93 -67 -109 -73
-150 -53 -46 22 -111 89 -138 144 -21 44 -22 57 -28 440 -5 401 -11 460 -44
460 -9 0 -20 -28 -30 -77z"/>
<path d="M7903 2403 c-13 -46 -6 -299 11 -446 10 -75 30 -206 46 -290 16 -83
27 -154 24 -156 -2 -2 -79 73 -171 166 -163 166 -244 230 -276 217 -29 -11
-47 -68 -47 -151 1 -226 100 -373 253 -373 72 0 109 -26 267 -185 69 -69 128
-125 132 -125 34 0 -35 493 -97 690 -20 63 -41 152 -47 197 -10 79 -5 153 10
153 5 0 43 -27 86 -60 43 -33 82 -60 87 -60 14 0 11 23 -17 106 -41 123 -99
229 -158 290 -60 62 -91 70 -103 27z"/>
<path d="M5785 908 c-103 -135 -193 -228 -220 -228 -13 0 -133 55 -267 121
-134 67 -253 125 -265 130 -20 7 -28 0 -76 -79 -134 -217 -310 -526 -301 -529
5 -2 155 -75 333 -163 239 -118 327 -157 332 -148 28 50 175 249 204 278 l36
35 92 -47 c51 -26 168 -92 262 -147 l169 -99 104 141 c137 185 272 376 284
404 15 31 6 46 -54 91 -41 31 -552 333 -561 332 -1 -1 -33 -42 -72 -92z"/>
</g>
</svg>
