<?xml version="1.0" standalone="no"?>
<!DOCTYPE svg PUBLIC "-//W3C//DTD SVG 20010904//EN"
 "http://www.w3.org/TR/2001/REC-SVG-20010904/DTD/svg10.dtd">
<svg version="1.0" xmlns="http://www.w3.org/2000/svg"
 width="1280.000000pt" height="640.000000pt" viewBox="0 0 1280.000000 640.000000"
 preserveAspectRatio="xMidYMid meet">
<metadata>
Created by potrace 1.15, written by Peter Selinger 2001-2017
</metadata>
<g transform="translate(0.000000,640.000000) scale(0.100000,-0.100000)"
fill="#000000" stroke="none">
<path d="M2413 5663 c-52 -111 -59 -159 -39 -254 34 -164 90 -1091 101 -1679
7 -352 10 -399 30 -379 36 39 98 272 116 438 15 145 7 460 -21 756 -22 241
-38 635 -25 635 4 0 33 -21 63 -47 l55 -47 -6 52 c-8 70 -65 232 -148 425 -38
87 -72 165 -77 173 -6 11 -19 -8 -49 -73z"/>
<path d="M3975 5533 c-50 -13 -443 -153 -655 -235 -315 -121 -387 -156 -429
-203 -62 -71 -96 -174 -75 -229 12 -32 73 -59 135 -60 66 -1 86 13 67 48 -15
28 -32 41 -100 76 -58 30 -70 48 -45 68 32 27 186 94 549 238 216 86 429 173
474 194 76 35 114 67 114 97 0 14 -2 14 -35 6z"/>
<path d="M1997 5450 c-45 -39 -69 -98 -104 -249 -15 -67 -32 -123 -38 -124 -5
-1 -26 42 -47 96 -59 158 -121 237 -186 237 -37 0 -71 -36 -79 -83 -12 -78 13
-107 102 -117 l50 -5 37 -75 c39 -78 78 -206 78 -255 0 -53 -146 -168 -516
-405 -113 -73 -203 -134 -200 -137 9 -9 133 39 271 107 231 112 398 252 461
385 14 28 46 133 73 235 53 199 82 277 105 286 8 3 35 -8 60 -25 l45 -31 12
21 c19 36 5 106 -27 140 -35 37 -55 37 -97 -1z"/>
<path d="M713 5310 c-12 -5 -26 -17 -31 -27 -17 -32 -32 -147 -32 -242 l0 -92
31 -17 c61 -33 75 -48 61 -65 -17 -20 -284 -200 -397 -267 -157 -93 -248 -154
-238 -157 6 -2 55 13 110 33 237 89 366 165 525 312 103 95 111 99 217 102 30
0 59 4 64 7 17 10 47 88 47 123 0 125 -254 332 -357 290z m85 -190 c7 -11 15
-41 19 -65 l6 -45 -40 0 c-42 0 -93 30 -93 55 0 23 51 75 73 75 12 0 28 -9 35
-20z m164 -60 c62 -65 63 -80 1 -79 -82 2 -98 10 -96 50 7 95 26 101 95 29z"/>
<path d="M4706 5091 c-66 -113 -68 -149 -16 -323 54 -181 87 -503 135 -1293
14 -231 29 -489 35 -574 5 -85 10 -164 10 -176 0 -14 -19 -34 -61 -64 -100
-71 -274 -223 -724 -635 -137 -126 -290 -265 -340 -308 -87 -76 -125 -97 -110
-61 23 54 65 181 65 196 0 39 -26 -2 -102 -160 -91 -192 -131 -240 -272 -335
-152 -101 -278 -155 -418 -179 -68 -11 -84 -11 -131 4 -77 24 -131 69 -163
132 -22 47 -26 67 -26 142 1 101 17 177 68 324 46 133 81 198 150 279 108 126
190 282 249 473 22 71 34 93 61 113 31 24 254 131 459 218 251 109 795 351
907 404 94 44 131 68 156 98 35 42 113 194 106 206 -8 12 -98 -20 -342 -122
-130 -54 -262 -106 -292 -115 -189 -56 -416 -28 -563 69 -170 113 -356 358
-374 492 -5 37 -2 43 35 76 76 68 200 126 318 147 96 17 296 33 305 24 4 -4
-10 -53 -32 -107 -59 -145 -72 -205 -73 -334 l-1 -113 33 -30 c18 -16 41 -29
51 -29 36 0 97 86 115 164 l7 28 -38 -31 c-77 -64 -113 -32 -113 99 0 88 18
170 61 290 l24 65 135 3 c120 3 256 -8 330 -25 l25 -6 -25 27 c-63 69 -291
185 -412 210 -100 21 -295 21 -396 0 -231 -47 -412 -213 -467 -429 -33 -132
-10 -308 59 -450 49 -100 119 -187 237 -297 117 -110 117 -112 21 -149 -164
-62 -287 -100 -307 -95 -13 3 -43 38 -77 88 -68 103 -144 187 -205 227 -165
110 -408 -94 -439 -368 -9 -83 16 -165 66 -212 57 -54 109 -64 342 -64 l198 0
6 -32 c13 -68 -35 -144 -186 -291 -253 -249 -600 -481 -825 -552 -93 -30 -298
-32 -392 -5 -163 46 -263 203 -263 410 l0 80 167 110 c315 208 586 409 670
497 70 74 103 176 103 327 0 165 -41 286 -121 354 -22 20 -109 70 -193 113
-222 113 -387 206 -513 290 -160 106 -174 133 -68 134 109 1 87 36 -74 119
-89 45 -261 121 -276 121 -4 0 -5 -58 -4 -128 l4 -128 95 -105 c265 -291 296
-314 763 -559 194 -102 292 -169 314 -215 16 -33 15 -35 -11 -69 -33 -44 -138
-124 -316 -243 -148 -98 -421 -270 -443 -279 -12 -4 -13 3 -6 38 17 91 4 87
-46 -12 -41 -81 -75 -111 -203 -178 -374 -194 -573 -134 -572 172 1 132 7 148
108 250 105 107 135 155 162 261 50 195 -2 409 -143 592 -29 37 -56 73 -60 79
-3 6 12 38 35 70 123 175 222 347 251 439 15 45 40 216 32 223 -1 1 -29 -44
-60 -100 -116 -205 -339 -548 -357 -548 -4 0 -28 19 -55 42 -106 92 -373 242
-418 236 -22 -3 -40 -56 -51 -148 l-6 -59 93 -60 c107 -69 243 -162 278 -192
l24 -20 -101 -202 c-119 -235 -141 -307 -149 -468 -7 -142 9 -211 62 -263 43
-43 90 -54 165 -37 30 7 74 15 98 18 l42 6 -7 -59 c-5 -33 -8 -129 -8 -214 0
-136 3 -163 23 -219 49 -137 128 -201 247 -201 88 0 162 22 314 95 73 36 135
65 136 65 1 0 5 -72 8 -160 4 -87 12 -183 18 -212 28 -134 141 -278 265 -339
66 -33 72 -34 189 -34 280 0 439 78 893 438 7 5 14 8 17 6 2 -3 -11 -56 -29
-120 -66 -227 -73 -443 -22 -606 37 -114 78 -171 150 -207 53 -27 68 -30 155
-30 161 1 276 42 470 168 57 37 104 66 106 64 1 -2 9 -34 18 -73 24 -100 78
-203 140 -267 81 -85 102 -93 237 -93 101 0 120 3 160 23 84 45 231 175 428
381 348 362 476 491 483 483 4 -4 19 -65 34 -136 50 -236 93 -334 190 -431
166 -167 500 -295 900 -346 119 -15 805 -15 1000 0 292 23 603 69 844 127 319
76 723 213 1009 343 63 28 122 51 132 51 18 0 40 -49 40 -91 0 -41 43 -136 77
-171 66 -68 198 -101 308 -78 124 25 280 132 401 273 74 87 73 87 100 -3 47
-161 150 -243 286 -227 115 14 198 80 290 229 33 54 64 96 69 93 4 -3 27 -42
50 -86 78 -149 169 -198 351 -186 200 13 338 66 1423 550 264 118 281 128 302
164 24 41 93 207 93 223 0 12 -55 -8 -398 -149 -361 -148 -462 -181 -577 -188
-108 -6 -173 11 -285 77 -231 135 -490 507 -431 618 22 41 212 117 391 157
145 32 612 31 748 -2 12 -3 22 -1 22 6 0 28 -288 179 -395 206 -166 43 -366
42 -497 -2 -138 -47 -283 -172 -352 -303 -38 -73 -39 -75 -44 -209 -2 -78 0
-162 7 -196 14 -79 97 -244 160 -321 55 -67 187 -182 239 -208 44 -22 32 -37
-56 -70 -196 -74 -420 -91 -526 -41 -74 35 -126 132 -126 234 0 25 -4 52 -8
59 -11 16 -19 6 -101 -115 -68 -100 -155 -188 -217 -219 -29 -14 -60 -19 -120
-19 -70 0 -85 3 -121 27 -56 37 -76 84 -83 197 l-5 94 -130 -123 c-145 -136
-231 -202 -296 -227 -63 -23 -265 -23 -337 1 -103 35 -139 104 -126 248 5 60
4 78 -6 78 -7 0 -103 -40 -214 -89 -297 -131 -481 -195 -781 -270 -262 -65
-711 -141 -955 -160 -360 -29 -938 -22 -1190 15 -235 34 -492 95 -575 136
-105 53 -202 153 -262 273 -42 83 -62 155 -70 252 l-6 83 54 24 c117 51 308
96 412 96 59 0 111 -21 128 -52 7 -12 29 -64 49 -113 44 -110 98 -191 178
-268 61 -57 153 -110 177 -100 22 8 52 94 66 186 7 52 18 91 25 94 15 5 237
-65 262 -83 15 -11 15 -18 -2 -101 -43 -206 -31 -323 36 -341 59 -15 80 -3
115 68 46 93 43 128 -7 75 -27 -28 -71 -33 -90 -10 -22 26 -23 142 -3 225 l19
75 109 -2 c61 -2 244 -5 408 -9 l298 -6 -7 -108 c-11 -178 9 -240 77 -240 43
0 94 55 114 122 22 77 19 83 -23 38 -23 -23 -48 -40 -61 -40 -31 0 -51 54 -51
138 0 101 -4 99 262 133 123 15 691 87 1263 159 1894 238 1769 221 1816 245
95 50 162 300 115 433 -75 213 -359 379 -701 411 -126 11 -287 0 -1120 -80
-1128 -108 -1150 -110 -1485 -116 -410 -7 -615 12 -729 69 -83 42 -81 70 11
174 137 155 379 367 568 497 299 205 575 337 704 337 52 0 60 -3 101 -41 l44
-40 15 23 c37 57 69 144 73 202 4 52 2 65 -16 88 -30 37 -89 52 -174 43 -125
-12 -238 -60 -474 -201 -495 -297 -807 -581 -955 -871 -119 -232 -123 -380
-12 -471 44 -36 138 -67 254 -84 122 -17 528 -14 750 6 102 9 453 41 780 72
327 30 642 59 700 64 595 55 771 64 922 51 203 -17 318 -51 427 -124 63 -43
161 -144 161 -166 0 -38 -4 -39 -761 -136 -1189 -152 -1949 -240 -2312 -270
-326 -26 -1025 -15 -1185 19 -164 35 -346 115 -447 196 -120 97 -169 130 -191
130 -13 0 -24 -4 -24 -9 0 -14 -40 -20 -220 -31 -178 -11 -219 -20 -377 -83
-57 -22 -105 -38 -109 -35 -3 3 -8 125 -11 270 l-6 264 31 23 c59 42 449 211
485 211 6 0 19 -15 28 -33 24 -50 46 -47 61 8 7 25 22 54 33 65 12 11 103 50
201 86 l180 65 27 82 c54 167 49 196 -52 289 -129 120 -293 208 -401 215 -92
7 -142 -9 -200 -65 -94 -91 -104 -216 -30 -389 47 -109 51 -99 -55 -139 -38
-14 -119 -48 -178 -75 -110 -50 -147 -59 -147 -36 0 25 -39 866 -45 962 -43
748 -94 1100 -189 1304 l-24 53 -36 -61z m-4086 -1671 c63 -71 150 -196 150
-215 0 -21 -105 -113 -177 -154 -97 -57 -165 -82 -243 -87 -147 -11 -156 54
-39 288 50 101 142 242 171 262 19 14 24 13 48 -4 15 -11 56 -51 90 -90z
m5005 -188 c80 -28 150 -71 150 -92 0 -16 -183 -90 -222 -90 -18 0 -31 18 -69
95 -40 80 -45 97 -34 110 17 20 77 12 175 -23z m-2951 -232 c23 -11 59 -35 80
-53 56 -48 46 -63 -47 -72 -105 -10 -154 0 -195 41 -39 39 -34 61 20 87 45 22
93 21 142 -3z m2199 -672 c4 -51 10 -172 13 -268 l7 -175 -384 -387 c-392
-394 -487 -478 -612 -537 -74 -35 -164 -55 -203 -45 -53 13 -102 43 -122 76
-11 18 -30 69 -41 113 -19 76 -19 81 -3 96 9 9 49 45 87 79 39 35 221 208 405
385 184 177 385 368 447 424 113 103 383 330 394 331 3 0 9 -42 12 -92z"/>
<path d="M4299 5089 c-37 -8 -650 -229 -760 -274 -86 -35 -100 -49 -123 -122
-10 -31 -2 -30 133 21 621 237 777 306 796 354 9 23 -6 30 -46 21z"/>
<path d="M5182 5009 c-63 -83 -58 -106 44 -219 190 -211 254 -361 254 -599 0
-108 2 -123 14 -111 44 46 76 269 58 397 -15 107 -54 225 -99 302 -21 35 -83
111 -138 169 l-100 104 -33 -43z"/>
<path d="M4371 4721 c-57 -120 -71 -175 -78 -313 l-6 -117 36 -36 c19 -19 44
-35 55 -35 37 0 96 83 116 164 l7 28 -42 -36 c-24 -20 -47 -36 -52 -36 -5 0
-22 13 -38 29 -23 24 -29 38 -29 74 0 59 24 183 55 282 13 43 23 81 21 82 -1
2 -22 -37 -45 -86z"/>
<path d="M6334 4763 c-45 -48 -67 -106 -104 -275 -12 -54 -25 -98 -30 -98 -4
0 -24 42 -45 93 -57 143 -134 247 -183 247 -20 0 -72 -51 -92 -88 -26 -52 30
-112 104 -112 28 0 40 -7 60 -32 34 -46 90 -184 110 -270 3 -14 8 -33 12 -41
9 -25 -174 -168 -464 -359 -150 -100 -271 -183 -268 -185 6 -6 222 80 301 119
96 48 216 130 304 207 102 91 131 149 201 401 79 286 105 327 173 263 l29 -28
19 24 c22 26 24 47 8 88 -28 74 -90 95 -135 46z"/>
<path d="M2221 4381 c-6 -11 -11 -33 -11 -49 0 -39 28 -130 51 -168 40 -66 10
-119 -54 -95 -39 15 -63 61 -76 149 -17 112 -32 162 -48 162 -22 0 -30 -38
-21 -99 25 -171 25 -166 -19 -211 -30 -29 -49 -40 -72 -40 -50 0 -66 42 -67
175 0 61 -1 116 -2 123 -3 20 -27 14 -52 -13 -25 -27 -25 -11 5 -225 8 -58 15
-108 15 -112 0 -3 12 -20 26 -37 21 -25 34 -31 65 -31 45 0 99 41 119 90 7 16
15 30 18 30 2 0 23 -20 46 -45 46 -49 71 -55 114 -29 83 49 90 123 33 303 -23
72 -46 133 -51 136 -5 3 -14 -3 -19 -14z"/>
<path d="M6981 4309 c-45 -18 -137 -123 -150 -172 -22 -75 2 -120 102 -192
l28 -20 -52 -39 c-110 -82 -222 -156 -427 -285 -117 -73 -211 -135 -209 -137
11 -11 270 95 377 154 77 42 146 91 255 182 104 87 121 96 144 76 27 -24 49
-19 71 17 28 45 25 64 -16 110 -34 37 -36 43 -30 86 4 25 9 78 13 118 l6 72
-34 20 c-38 23 -44 24 -78 10z"/>
<path d="M9495 3834 c-653 -241 -1096 -407 -1148 -431 -143 -67 -250 -249
-189 -322 19 -23 116 -61 157 -61 18 0 26 7 31 24 13 55 3 69 -71 99 -90 36
-94 41 -64 73 41 44 190 109 674 294 701 268 836 325 854 358 15 28 14 52 -1
51 -7 0 -116 -39 -243 -85z"/>
<path d="M10720 3678 c-270 -95 -1279 -479 -1385 -527 -33 -15 -66 -34 -72
-43 -14 -17 -29 -78 -19 -78 3 0 82 30 174 66 92 36 266 103 387 149 121 46
315 120 430 163 368 140 539 214 562 244 15 19 23 47 15 52 -4 2 -45 -10 -92
-26z"/>
<path d="M1355 3408 c-59 -51 -81 -103 -116 -273 -11 -55 -24 -104 -29 -108
-4 -5 -18 22 -30 60 -32 97 -71 171 -120 226 -67 76 -115 73 -152 -10 -34 -76
-4 -126 82 -137 43 -6 53 -12 74 -43 28 -41 77 -160 101 -245 9 -32 19 -58 21
-58 11 0 44 97 78 229 21 79 47 164 59 190 20 40 26 46 52 45 17 -1 45 -7 63
-15 40 -17 52 -5 52 52 0 26 -9 46 -36 77 -19 23 -42 42 -49 42 -8 0 -30 -14
-50 -32z"/>
<path d="M7744 3374 c-80 -178 -111 -325 -102 -485 4 -73 18 -98 71 -126 25
-13 31 -12 59 4 39 23 83 101 102 181 14 61 14 63 -3 48 -10 -9 -27 -32 -37
-51 -15 -29 -24 -35 -50 -35 -18 0 -42 9 -55 19 -23 18 -24 25 -23 123 1 100
8 134 61 316 21 74 9 76 -23 6z"/>
<path d="M11086 3318 c-37 -37 -70 -117 -92 -222 -24 -113 -35 -149 -44 -140
-4 5 -22 46 -40 92 -43 111 -73 164 -120 206 -67 60 -120 43 -150 -50 -10 -29
-9 -39 5 -60 21 -33 73 -64 107 -64 15 0 36 -10 48 -22 27 -29 72 -126 99
-211 32 -105 34 -107 60 -46 13 29 38 113 57 186 37 146 63 206 95 223 17 10
28 7 59 -14 43 -28 55 -23 66 32 5 22 0 41 -16 67 -40 64 -85 72 -134 23z"/>
<path d="M4426 3143 c-59 -122 -106 -298 -106 -390 1 -103 67 -176 129 -142
28 16 76 103 86 158 l7 33 -38 -41 c-45 -50 -68 -50 -102 -1 -22 32 -24 42
-18 115 3 46 20 127 39 193 35 113 36 143 3 75z"/>
<path d="M6197 2972 c-59 -65 -167 -397 -167 -513 0 -60 42 -99 107 -99 104 0
168 77 180 216 7 86 -4 114 -81 199 l-53 60 23 69 c13 38 24 73 24 78 0 14
-16 9 -33 -10z m3 -327 c22 -14 47 -37 57 -51 17 -27 17 -27 -20 -59 -60 -52
-140 -64 -152 -24 -15 48 27 159 60 159 8 0 33 -11 55 -25z"/>
<path d="M3823 2668 c-16 -21 -90 -161 -97 -184 -6 -19 7 -31 91 -88 58 -39
111 -68 128 -69 28 -2 33 4 67 68 55 106 57 119 17 157 -35 32 -176 128 -189
128 -4 0 -12 -6 -17 -12z"/>
<path d="M2016 2539 c-65 -141 -101 -338 -77 -426 13 -46 51 -83 85 -83 12 0
35 13 49 28 29 30 67 117 67 154 0 18 -4 16 -27 -15 -40 -52 -61 -56 -95 -18
-43 48 -41 131 7 304 19 67 32 123 30 126 -3 2 -20 -29 -39 -70z"/>
<path d="M3273 2559 c-96 -47 -173 -160 -173 -253 0 -44 4 -52 40 -85 22 -20
40 -40 40 -44 0 -5 -21 -50 -46 -101 -38 -77 -46 -105 -51 -167 -6 -89 5 -122
49 -145 48 -25 178 -30 258 -10 88 23 251 108 236 123 -3 3 -66 -5 -141 -17
-158 -26 -286 -25 -329 3 -73 48 -33 131 148 312 84 84 143 152 156 181 35 71
15 76 -65 15 -92 -71 -129 -77 -188 -30 -35 27 -34 50 4 94 30 34 34 35 79 29
42 -6 49 -4 64 17 21 31 20 62 -2 82 -24 22 -28 21 -79 -4z"/>
</g>
</svg>
